<svg id="Layer_1" data-name="Layer 1" xmlns="http://www.w3.org/2000/svg" xmlns:xlink="http://www.w3.org/1999/xlink" viewBox="0 0 800 800"><defs><style>.cls-1{fill:none;}.cls-2{fill:#194456;stroke:#173e4e;stroke-miterlimit:10;stroke-width:3px;}.cls-3{fill:url(#Chinese_Wave_Pattern_2);}</style><pattern id="Chinese_Wave_Pattern_2" data-name="Chinese Wave Pattern 2" x="-0.75" width="108.11" height="98.7" patternUnits="userSpaceOnUse" viewBox="0 0 108.11 98.7"><rect class="cls-1" width="108.11" height="98.7"/><circle class="cls-2" cx="102.14" cy="-24.32" r="46.58"/><circle class="cls-2" cx="102.14" cy="-24.32" r="32.4"/><circle class="cls-2" cx="-5.97" cy="-24.32" r="46.58"/><circle class="cls-2" cx="-5.97" cy="-24.32" r="32.4"/><circle class="cls-2" cx="48.08" cy="0.36" r="46.58"/><circle class="cls-2" cx="48.08" cy="0.36" r="32.4"/><circle class="cls-2" cx="48.08" cy="0.36" r="18.91"/><circle class="cls-2" cx="102.14" cy="25.03" r="46.58"/><circle class="cls-2" cx="102.14" cy="25.03" r="32.4"/><circle class="cls-2" cx="102.14" cy="25.03" r="18.91"/><circle class="cls-2" cx="-5.97" cy="25.03" r="46.58"/><circle class="cls-2" cx="-5.97" cy="25.03" r="32.4"/><circle class="cls-2" cx="-5.97" cy="25.03" r="18.91"/><circle class="cls-2" cx="48.08" cy="49.71" r="46.58"/><circle class="cls-2" cx="48.08" cy="49.71" r="32.4"/><circle class="cls-2" cx="48.08" cy="49.71" r="18.91"/><circle class="cls-2" cx="102.14" cy="74.38" r="46.58"/><circle class="cls-2" cx="102.14" cy="74.38" r="32.4"/><circle class="cls-2" cx="102.14" cy="74.38" r="18.91"/><circle class="cls-2" cx="-5.97" cy="74.38" r="46.58"/><circle class="cls-2" cx="-5.97" cy="74.38" r="32.4"/><circle class="cls-2" cx="-5.97" cy="74.38" r="18.91"/><circle class="cls-2" cx="48.08" cy="99.06" r="46.58"/><circle class="cls-2" cx="48.08" cy="99.06" r="32.4"/><circle class="cls-2" cx="48.08" cy="99.06" r="18.91"/><circle class="cls-2" cx="102.14" cy="123.73" r="46.58"/><circle class="cls-2" cx="102.14" cy="123.73" r="32.4"/><circle class="cls-2" cx="-5.97" cy="123.73" r="46.58"/><circle class="cls-2" cx="-5.97" cy="123.73" r="32.4"/></pattern></defs><title>Chinese_Pattern</title><rect class="cls-3" width="800" height="800"/></svg>